<svg width="35" height="55" viewBox="0 0 35 55" fill="none" xmlns="http://www.w3.org/2000/svg">
<path d="M34.976 49.048V55H2.432V49.048H16.064V7.96C15.552 8.728 14.688 9.56 13.472 10.456C12.256 11.352 10.848 12.184 9.248 12.952C7.712 13.72 6.176 14.36 4.64 14.872C3.104 15.384 1.696 15.64 0.416 15.64V9.304C1.888 9.304 3.488 8.888 5.216 8.056C6.944 7.224 8.608 6.264 10.208 5.17599C11.808 4.088 13.152 3.064 14.24 2.104C15.328 1.144 15.936 0.503996 16.064 0.183996H22.784V49.048H34.976Z" fill="black"/>
</svg>
