<svg width="93" height="106" viewBox="0 0 93 106" fill="none" xmlns="http://www.w3.org/2000/svg">
<path d="M1.07864 54.6265V54.6265C28.3592 44.5188 58.2685 44.0026 85.8816 53.163L86.5269 53.3771" stroke="#FFC107" stroke-width="1.96602" stroke-linecap="round"/>
<path d="M92.27 56.2782L83.4473 55.3173L86.5511 53.3929L86.2545 49.753L92.27 56.2782Z" fill="#FFC107"/>
<path fill-rule="evenodd" clip-rule="evenodd" d="M5.63126 90.8849C5.68835 99.4565 11.4745 106.067 21.0442 105.999C30.1722 105.935 33.8174 100.589 38.7542 90.2091C43.69 79.681 46.7473 74.4868 53.2252 74.4413C57.642 74.4104 61.0439 76.7512 62.6929 81.1734C65.8398 89.4278 66.896 93.2631 66.9176 96.5144C66.9354 99.1746 66.214 101.397 64.7545 103.328L91.2552 103.142C84.1559 98.3148 80.7244 91.5403 76.0777 79.1582L65.1478 49.8614C60.2314 49.0903 55.2818 48.6116 50.3251 48.4249L60.5934 75.4242C58.8168 73.9587 56.4543 72.9407 53.5098 72.9614C47.4735 73.0038 44.3985 75.5378 39.6031 85.0303C36.113 91.5577 31.4204 94.3988 26.2675 94.4349C20.2312 94.4773 11.962 90.8404 11.8941 80.6431C11.8695 76.9484 13.1669 72.8011 15.0513 68.354L37.6652 15.1373L49.0268 45.0111C53.9644 45.1428 58.8974 45.5565 63.8014 46.2527L46.5456 0L26.2284 0.14256C31.2567 3.50654 34.2308 7.91949 36.7691 13.2223L7.34186 82.4486C6.18374 85.4126 5.61354 88.2247 5.63126 90.8849Z" fill="black"/>
</svg>
